<?xml version="1.0" standalone="no"?>
<!DOCTYPE svg PUBLIC "-//W3C//DTD SVG 20010904//EN"
 "http://www.w3.org/TR/2001/REC-SVG-20010904/DTD/svg10.dtd">
<svg version="1.0" xmlns="http://www.w3.org/2000/svg"
 width="216.000000pt" height="216.000000pt" viewBox="0 0 216.000000 216.000000"
 preserveAspectRatio="xMidYMid meet">
<metadata>
Created by potrace 1.11, written by Peter Selinger 2001-2013
</metadata>
<g transform="translate(0.000000,216.000000) scale(0.100000,-0.100000)"
fill="#000000" stroke="none">
<path d="M1819 1647 c-24 -18 -71 -50 -104 -69 -137 -83 -192 -157 -182 -247
6 -57 15 -76 54 -113 66 -62 162 -64 231 -4 33 29 27 0 -7 -35 -16 -16 -37
-29 -45 -29 -29 0 -16 -19 17 -25 47 -9 123 2 176 26 l46 20 -31 14 c-30 12
-64 49 -64 68 0 5 12 -1 26 -12 54 -42 150 -16 186 50 24 42 19 105 -13 179
-26 59 -100 130 -187 177 l-59 33 -44 -33z"/>
<path d="M430 1390 l0 -220 40 0 c40 0 41 0 38 35 -1 25 4 42 19 56 l21 21 58
-56 c58 -55 60 -56 118 -56 l59 0 -87 83 -87 82 61 55 c34 30 72 63 84 72 20
17 19 18 -43 18 l-64 0 -66 -62 -66 -63 -3 128 -3 127 -39 0 -40 0 0 -220z"/>
<path d="M858 1603 c-10 -2 -21 -16 -24 -29 -8 -31 19 -54 55 -47 47 8 57 57
15 73 -14 6 -26 9 -27 9 -1 -1 -10 -3 -19 -6z"/>
<path d="M1020 1390 l0 -220 40 0 40 0 0 220 0 220 -40 0 -40 0 0 -220z"/>
<path d="M1200 1390 l0 -220 40 0 40 0 0 218 0 219 -40 1 -40 2 0 -220z"/>
<path d="M123 1480 c-95 -21 -132 -102 -75 -160 28 -27 32 -28 125 -27 53 0
99 -2 103 -5 3 -4 3 -16 -1 -27 -11 -36 -137 -41 -204 -8 -27 13 -29 13 -45
-13 -9 -16 -16 -30 -16 -33 0 -11 98 -37 150 -40 78 -5 134 9 170 43 27 25 31
35 28 72 -2 35 -9 46 -36 65 -29 19 -43 21 -115 17 -45 -2 -88 0 -95 4 -18 12
-4 41 25 48 27 7 119 0 145 -11 12 -5 21 1 32 24 l16 30 -42 11 c-53 15 -124
19 -165 10z"/>
<path d="M840 1325 l0 -155 40 0 40 0 0 155 0 155 -40 0 -40 0 0 -155z"/>
<path d="M429 1043 c-1 -16 -2 -49 -2 -75 -1 -27 -2 -48 -3 -48 -1 0 -17 6
-35 14 -42 17 -137 13 -177 -8 -113 -58 -113 -224 -1 -281 39 -21 109 -24 163
-8 36 11 51 12 56 3 4 -6 22 -10 41 -8 l34 3 1 205 c0 113 -2 211 -4 218 -2 6
-19 12 -38 12 -30 0 -34 -3 -35 -27z m-25 -187 c27 -17 32 -107 8 -129 -29
-26 -95 -38 -133 -26 -89 30 -93 142 -6 168 37 11 104 4 131 -13z"/>
<path d="M1218 1063 c-34 -9 -33 -71 1 -75 45 -4 71 9 71 37 0 27 -37 47 -72
38z"/>
<path d="M1019 1028 c-1 -7 -2 -29 -3 -48 -1 -33 -3 -35 -38 -38 -34 -3 -38
-6 -38 -31 0 -24 4 -28 31 -29 17 0 34 -4 38 -7 3 -4 7 -55 7 -113 1 -59 2
-113 3 -120 1 -9 13 -12 38 -10 l38 3 0 118 c0 126 5 138 51 129 21 -4 24 -1
24 26 0 28 -3 31 -37 34 -38 3 -38 3 -38 48 0 45 -1 45 -38 48 -25 2 -37 -1
-38 -10z"/>
<path d="M638 935 c-32 -6 -60 -14 -63 -17 -3 -3 -1 -17 5 -32 9 -25 13 -27
43 -20 59 15 155 9 177 -11 32 -29 26 -44 -13 -35 -99 22 -212 -4 -235 -55
-12 -26 -8 -71 9 -91 37 -45 142 -61 223 -34 30 9 40 10 46 0 4 -6 22 -10 41
-8 l34 3 -2 98 c-2 112 -20 160 -71 190 -39 23 -118 28 -194 12z m175 -184
c21 -8 21 -9 -13 -29 -71 -44 -175 -37 -168 10 2 16 12 25 33 29 35 7 117 1
148 -10z"/>
<path d="M1475 940 c-16 -4 -38 -11 -47 -15 -11 -4 -18 -3 -18 4 0 6 -17 11
-40 11 l-40 0 0 -155 0 -155 39 0 38 0 1 63 c1 168 -3 153 43 171 51 21 99 13
131 -21 20 -21 23 -37 26 -119 l4 -94 39 0 39 0 -3 103 c-4 116 -20 158 -73
189 -35 20 -97 29 -139 18z"/>
<path d="M1870 940 c-100 -19 -153 -92 -136 -185 19 -99 152 -153 264 -108 28
12 32 11 32 -2 0 -26 -29 -62 -61 -75 -20 -9 -53 -11 -103 -6 l-74 7 -10 -31
c-10 -28 -9 -30 16 -37 15 -4 65 -8 112 -8 72 0 91 4 124 24 64 40 76 79 76
264 l0 157 -40 0 c-22 0 -40 -4 -40 -10 0 -6 -9 -6 -26 0 -36 14 -93 18 -134
10z m133 -81 c25 -11 27 -17 27 -70 l0 -57 -40 -16 c-73 -29 -140 -15 -165 34
-46 88 70 158 178 109z"/>
<path d="M1200 785 l0 -155 40 0 40 0 0 155 0 155 -40 0 -40 0 0 -155z"/>
</g>
</svg>
